<mxfile host="app.diagrams.net" modified="2023-09-15T03:32:28.664Z" agent="Mozilla/5.0 (Windows NT 10.0; Win64; x64) AppleWebKit/537.36 (KHTML, like Gecko) Chrome/116.0.0.0 Safari/537.36 Edg/116.0.1938.81" etag="XsCLFhMXVEe_pyRQ2e5m" version="21.7.5" type="google">
  <diagram id="C5RBs43oDa-KdzZeNtuy" name="Page-1">
    <mxGraphModel grid="1" page="1" gridSize="10" guides="1" tooltips="1" connect="1" arrows="1" fold="1" pageScale="1" pageWidth="827" pageHeight="1169" math="0" shadow="0">
      <root>
        <mxCell id="WIyWlLk6GJQsqaUBKTNV-0" />
        <mxCell id="WIyWlLk6GJQsqaUBKTNV-1" parent="WIyWlLk6GJQsqaUBKTNV-0" />
        <mxCell id="WIyWlLk6GJQsqaUBKTNV-3" value="NUMERO NATURAL n" style="rounded=1;whiteSpace=wrap;html=1;fontSize=12;glass=0;strokeWidth=1;shadow=0;fillColor=#f8cecc;strokeColor=#b85450;" vertex="1" parent="WIyWlLk6GJQsqaUBKTNV-1">
          <mxGeometry x="160" y="80" width="120" height="40" as="geometry" />
        </mxCell>
        <mxCell id="PgQYx5XyoMszo40OkryQ-0" value="Lista del 0 a n-1" style="rounded=0;whiteSpace=wrap;html=1;fillColor=#f8cecc;strokeColor=#b85450;" vertex="1" parent="WIyWlLk6GJQsqaUBKTNV-1">
          <mxGeometry x="160" y="160" width="120" height="20" as="geometry" />
        </mxCell>
        <mxCell id="PgQYx5XyoMszo40OkryQ-2" value="" style="endArrow=classic;html=1;rounded=0;exitX=0.5;exitY=1;exitDx=0;exitDy=0;entryX=0.5;entryY=0;entryDx=0;entryDy=0;" edge="1" parent="WIyWlLk6GJQsqaUBKTNV-1" source="WIyWlLk6GJQsqaUBKTNV-3" target="PgQYx5XyoMszo40OkryQ-0">
          <mxGeometry width="50" height="50" relative="1" as="geometry">
            <mxPoint x="210" y="210" as="sourcePoint" />
            <mxPoint x="260" y="160" as="targetPoint" />
          </mxGeometry>
        </mxCell>
        <mxCell id="PgQYx5XyoMszo40OkryQ-4" value="&amp;nbsp;B= Número Natural B Sumado B-1 veces =a" style="rounded=0;whiteSpace=wrap;html=1;fillColor=#f8cecc;strokeColor=#b85450;" vertex="1" parent="WIyWlLk6GJQsqaUBKTNV-1">
          <mxGeometry x="145" y="210" width="150" height="40" as="geometry" />
        </mxCell>
        <mxCell id="PgQYx5XyoMszo40OkryQ-5" value="" style="endArrow=none;html=1;rounded=0;exitX=0.5;exitY=1;exitDx=0;exitDy=0;entryX=0.5;entryY=0;entryDx=0;entryDy=0;" edge="1" parent="WIyWlLk6GJQsqaUBKTNV-1" source="PgQYx5XyoMszo40OkryQ-0" target="PgQYx5XyoMszo40OkryQ-4">
          <mxGeometry width="50" height="50" relative="1" as="geometry">
            <mxPoint x="300" y="160" as="sourcePoint" />
            <mxPoint x="350" y="110" as="targetPoint" />
          </mxGeometry>
        </mxCell>
        <mxCell id="PgQYx5XyoMszo40OkryQ-6" value="" style="endArrow=none;html=1;curved=1;exitX=0.5;exitY=0;exitDx=0;exitDy=0;" edge="1" parent="WIyWlLk6GJQsqaUBKTNV-1" source="PgQYx5XyoMszo40OkryQ-7">
          <mxGeometry width="50" height="50" relative="1" as="geometry">
            <mxPoint x="120" y="370" as="sourcePoint" />
            <mxPoint x="230" y="250" as="targetPoint" />
            <Array as="points">
              <mxPoint x="180" y="290" />
              <mxPoint x="200" y="270" />
            </Array>
          </mxGeometry>
        </mxCell>
        <mxCell id="PgQYx5XyoMszo40OkryQ-7" value="Diferencia de n-a=0?" style="rhombus;whiteSpace=wrap;html=1;fillColor=#fad9d5;strokeColor=#ae4132;" vertex="1" parent="WIyWlLk6GJQsqaUBKTNV-1">
          <mxGeometry x="130" y="320" width="140" height="130" as="geometry" />
        </mxCell>
        <mxCell id="PgQYx5XyoMszo40OkryQ-8" value="" style="endArrow=classic;html=1;exitX=0.201;exitY=0.753;exitDx=0;exitDy=0;exitPerimeter=0;entryX=0.5;entryY=0;entryDx=0;entryDy=0;curved=1;" edge="1" parent="WIyWlLk6GJQsqaUBKTNV-1" source="PgQYx5XyoMszo40OkryQ-7" target="PgQYx5XyoMszo40OkryQ-12">
          <mxGeometry relative="1" as="geometry">
            <mxPoint x="89.99999999999977" y="422.03999999999996" as="sourcePoint" />
            <mxPoint x="32" y="540.0000000000001" as="targetPoint" />
            <Array as="points">
              <mxPoint x="20" y="530" />
            </Array>
          </mxGeometry>
        </mxCell>
        <mxCell id="PgQYx5XyoMszo40OkryQ-9" value="SI" style="edgeLabel;resizable=0;html=1;align=center;verticalAlign=middle;" connectable="0" vertex="1" parent="PgQYx5XyoMszo40OkryQ-8">
          <mxGeometry relative="1" as="geometry" />
        </mxCell>
        <mxCell id="PgQYx5XyoMszo40OkryQ-12" value="La raíz de n es b" style="rounded=0;whiteSpace=wrap;html=1;fillColor=#fad9d5;strokeColor=#ae4132;" vertex="1" parent="WIyWlLk6GJQsqaUBKTNV-1">
          <mxGeometry x="-30" y="554" width="120" height="30" as="geometry" />
        </mxCell>
        <mxCell id="PgQYx5XyoMszo40OkryQ-13" value="" style="endArrow=classic;html=1;rounded=0;exitX=0.781;exitY=0.71;exitDx=0;exitDy=0;exitPerimeter=0;" edge="1" parent="WIyWlLk6GJQsqaUBKTNV-1" source="PgQYx5XyoMszo40OkryQ-7">
          <mxGeometry relative="1" as="geometry">
            <mxPoint x="160" y="440" as="sourcePoint" />
            <mxPoint x="250" y="510" as="targetPoint" />
          </mxGeometry>
        </mxCell>
        <mxCell id="PgQYx5XyoMszo40OkryQ-14" value="&lt;font color=&quot;#ea6b66&quot;&gt;NO&lt;/font&gt;" style="edgeLabel;resizable=0;html=1;align=center;verticalAlign=middle;" connectable="0" vertex="1" parent="PgQYx5XyoMszo40OkryQ-13">
          <mxGeometry relative="1" as="geometry" />
        </mxCell>
        <mxCell id="PgQYx5XyoMszo40OkryQ-17" value="Diferencia de n-a=0?" style="rhombus;whiteSpace=wrap;html=1;fillColor=#fad9d5;strokeColor=#ae4132;" vertex="1" parent="WIyWlLk6GJQsqaUBKTNV-1">
          <mxGeometry x="210" y="480" width="150" height="140" as="geometry" />
        </mxCell>
        <mxCell id="PgQYx5XyoMszo40OkryQ-18" value="" style="endArrow=none;html=1;entryX=0.569;entryY=0.976;entryDx=0;entryDy=0;exitX=0.5;exitY=0;exitDx=0;exitDy=0;curved=1;entryPerimeter=0;" edge="1" parent="WIyWlLk6GJQsqaUBKTNV-1" source="PgQYx5XyoMszo40OkryQ-29" target="PgQYx5XyoMszo40OkryQ-4">
          <mxGeometry width="50" height="50" relative="1" as="geometry">
            <mxPoint x="370" y="450" as="sourcePoint" />
            <mxPoint x="360" y="270" as="targetPoint" />
            <Array as="points">
              <mxPoint x="430" y="440" />
            </Array>
          </mxGeometry>
        </mxCell>
        <mxCell id="PgQYx5XyoMszo40OkryQ-19" value="" style="endArrow=classic;html=1;exitX=1;exitY=1;exitDx=0;exitDy=0;curved=1;entryX=0;entryY=0;entryDx=0;entryDy=0;" edge="1" parent="WIyWlLk6GJQsqaUBKTNV-1" source="PgQYx5XyoMszo40OkryQ-17" target="PgQYx5XyoMszo40OkryQ-29">
          <mxGeometry relative="1" as="geometry">
            <mxPoint x="300" y="600" as="sourcePoint" />
            <mxPoint x="410" y="650" as="targetPoint" />
          </mxGeometry>
        </mxCell>
        <mxCell id="PgQYx5XyoMszo40OkryQ-20" value="NO" style="edgeLabel;resizable=0;html=1;align=center;verticalAlign=middle;fontStyle=1;fontColor=#EA6B66;" connectable="0" vertex="1" parent="PgQYx5XyoMszo40OkryQ-19">
          <mxGeometry relative="1" as="geometry" />
        </mxCell>
        <mxCell id="PgQYx5XyoMszo40OkryQ-21" value="" style="endArrow=classic;html=1;exitX=0;exitY=1;exitDx=0;exitDy=0;entryX=0.5;entryY=0;entryDx=0;entryDy=0;fontStyle=1;curved=1;" edge="1" parent="WIyWlLk6GJQsqaUBKTNV-1" source="PgQYx5XyoMszo40OkryQ-17" target="PgQYx5XyoMszo40OkryQ-24">
          <mxGeometry relative="1" as="geometry">
            <mxPoint x="250" y="630" as="sourcePoint" />
            <mxPoint x="170" y="640" as="targetPoint" />
            <Array as="points">
              <mxPoint x="190" y="610" />
            </Array>
          </mxGeometry>
        </mxCell>
        <mxCell id="PgQYx5XyoMszo40OkryQ-22" value="SI" style="edgeLabel;resizable=0;html=1;align=center;verticalAlign=middle;fontStyle=1;fontColor=#EA6B66;" connectable="0" vertex="1" parent="PgQYx5XyoMszo40OkryQ-21">
          <mxGeometry relative="1" as="geometry" />
        </mxCell>
        <mxCell id="PgQYx5XyoMszo40OkryQ-24" value="n no tiene raíz exacta" style="rounded=0;whiteSpace=wrap;html=1;fillColor=#fad9d5;strokeColor=#ae4132;" vertex="1" parent="WIyWlLk6GJQsqaUBKTNV-1">
          <mxGeometry x="110" y="640" width="130" height="30" as="geometry" />
        </mxCell>
        <mxCell id="PgQYx5XyoMszo40OkryQ-25" value="" style="endArrow=none;html=1;entryX=0.5;entryY=1;entryDx=0;entryDy=0;exitX=0.5;exitY=0;exitDx=0;exitDy=0;curved=1;" edge="1" parent="WIyWlLk6GJQsqaUBKTNV-1" source="PgQYx5XyoMszo40OkryQ-26" target="PgQYx5XyoMszo40OkryQ-12">
          <mxGeometry width="50" height="50" relative="1" as="geometry">
            <mxPoint x="20" y="740" as="sourcePoint" />
            <mxPoint y="710" as="targetPoint" />
            <Array as="points">
              <mxPoint x="10" y="730" />
            </Array>
          </mxGeometry>
        </mxCell>
        <mxCell id="PgQYx5XyoMszo40OkryQ-26" value="final" style="rounded=1;whiteSpace=wrap;html=1;fillColor=#fad9d5;strokeColor=#ae4132;" vertex="1" parent="WIyWlLk6GJQsqaUBKTNV-1">
          <mxGeometry x="-30" y="760" width="120" height="40" as="geometry" />
        </mxCell>
        <mxCell id="PgQYx5XyoMszo40OkryQ-28" value="" style="endArrow=none;html=1;entryX=0.522;entryY=0.999;entryDx=0;entryDy=0;entryPerimeter=0;exitX=0.5;exitY=0;exitDx=0;exitDy=0;curved=1;" edge="1" parent="WIyWlLk6GJQsqaUBKTNV-1" source="PgQYx5XyoMszo40OkryQ-26" target="PgQYx5XyoMszo40OkryQ-24">
          <mxGeometry width="50" height="50" relative="1" as="geometry">
            <mxPoint x="70" y="750" as="sourcePoint" />
            <mxPoint x="120" y="700" as="targetPoint" />
            <Array as="points">
              <mxPoint x="120" y="730" />
            </Array>
          </mxGeometry>
        </mxCell>
        <mxCell id="PgQYx5XyoMszo40OkryQ-29" value="Entonces b= b+1" style="rounded=0;whiteSpace=wrap;html=1;fillColor=#fad9d5;strokeColor=#ae4132;" vertex="1" parent="WIyWlLk6GJQsqaUBKTNV-1">
          <mxGeometry x="414" y="650" width="120" height="40" as="geometry" />
        </mxCell>
      </root>
    </mxGraphModel>
  </diagram>
</mxfile>
